<svg width="18" height="18" viewBox="0 0 18 18" fill="none" xmlns="http://www.w3.org/2000/svg">
<rect width="18" height="18" fill="#F2F2F2"/>
<g clip-path="url(#clip0)">
<rect x="-35" y="-34" width="768" height="1024" fill="white"/>
<g filter="url(#filter0_dd)">
<rect width="320" height="1024" transform="matrix(-1 0 0 1 285 -34)" fill="white"/>
</g>
<rect x="-11" y="-11" width="40" height="40" rx="20" fill="#FF3E79"/>
<path fill-rule="evenodd" clip-rule="evenodd" d="M2.79348 1.25712C2.40295 0.866593 1.76979 0.866592 1.37927 1.25712L1.25712 1.37927C0.866592 1.76979 0.866593 2.40296 1.25712 2.79348L7.46364 9L1.25712 15.2065C0.866593 15.597 0.866592 16.2302 1.25712 16.6207L1.37927 16.7429C1.76979 17.1334 2.40295 17.1334 2.79348 16.7429L9 10.5364L15.2065 16.7429C15.597 17.1334 16.2302 17.1334 16.6207 16.7429L16.7429 16.6207C17.1334 16.2302 17.1334 15.597 16.7429 15.2065L10.5364 9L16.7429 2.79348C17.1334 2.40296 17.1334 1.76979 16.7429 1.37927L16.6207 1.25712C16.2302 0.866592 15.597 0.866593 15.2065 1.25712L9 7.46364L2.79348 1.25712Z" fill="white"/>
</g>
<defs>
<filter id="filter0_dd" x="-71" y="-86" width="424" height="1128" filterUnits="userSpaceOnUse" color-interpolation-filters="sRGB">
<feFlood flood-opacity="0" result="BackgroundImageFix"/>
<feColorMatrix in="SourceAlpha" type="matrix" values="0 0 0 0 0 0 0 0 0 0 0 0 0 0 0 0 0 0 127 0"/>
<feOffset dx="16"/>
<feGaussianBlur stdDeviation="26"/>
<feColorMatrix type="matrix" values="0 0 0 0 0.0568147 0 0 0 0 0.0934795 0 0 0 0 0.314651 0 0 0 0.2 0"/>
<feBlend mode="normal" in2="BackgroundImageFix" result="effect1_dropShadow"/>
<feColorMatrix in="SourceAlpha" type="matrix" values="0 0 0 0 0 0 0 0 0 0 0 0 0 0 0 0 0 0 127 0"/>
<feOffset dx="-2"/>
<feGaussianBlur stdDeviation="2"/>
<feColorMatrix type="matrix" values="0 0 0 0 0.272411 0 0 0 0 0.308786 0 0 0 0 0.496065 0 0 0 0.02 0"/>
<feBlend mode="normal" in2="effect1_dropShadow" result="effect2_dropShadow"/>
<feBlend mode="normal" in="SourceGraphic" in2="effect2_dropShadow" result="shape"/>
</filter>
<clipPath id="clip0">
<rect x="-35" y="-34" width="768" height="1024" fill="white"/>
</clipPath>
</defs>
</svg>
